<svg xmlns="http://www.w3.org/2000/svg" width="73.565" height="73.565" viewBox="0 0 73.565 73.565"><defs><style>.a{fill:#3a506d;}.b{fill:#00bcd4;}</style></defs><g transform="translate(0.001 0.001)"><path class="a" d="M7.8,36.967A36.744,36.744,0,0,0,1.6,70.313H27.05Z" transform="translate(0 -22.804)"/><path class="b" d="M7.011,132A36.931,36.931,0,0,0,32.8,154.044L45.531,132Z" transform="translate(-4.325 -81.425)"/><path class="b" d="M140.654,101.346A36.744,36.744,0,0,0,146.853,68H121.4Z" transform="translate(-74.886 -41.947)"/><path class="a" d="M101.941,104,82.68,137.361a36.727,36.727,0,0,0,31.976-11.339Z" transform="translate(-51.002 -64.153)"/><path class="b" d="M38.579,33.716,57.841.355A36.727,36.727,0,0,0,25.865,11.694Z" transform="translate(-15.955)"/><path class="a" d="M97.18,2.466,84.453,24.51h38.52A36.931,36.931,0,0,0,97.18,2.466Z" transform="translate(-52.096 -1.522)"/></g></svg>